<?xml version="1.0" encoding="UTF-8"?>
<svg width="135px" height="38px" viewBox="0 0 135 38" version="1.1" xmlns="http://www.w3.org/2000/svg" xmlns:xlink="http://www.w3.org/1999/xlink">
    <!-- Generator: Sketch 52.6 (67491) - http://www.bohemiancoding.com/sketch -->
    <title>open-link</title>
    <desc>Created with Sketch.</desc>
    <g id="Page-1" stroke="none" stroke-width="1" fill="none" fill-rule="evenodd">
        <g id="GitHub-Button" fill="#0070F3">
            <g id="Group-2">
                <rect id="Rectangle" x="0" y="0" width="135" height="38" rx="4"></rect>
            </g>
        </g>
        <text id="Visit-Project" font-family="SFProText-Medium, SF Pro Text" font-size="15" font-weight="400" line-spacing="15" fill="#FFFFFF">
            <tspan x="40" y="25">Visit Project</tspan>
        </text>
        <g id="external-link" transform="translate(9.000000, 7.000000)" fill="#FFFFFF">
            <path d="M16.9642857,13.8571429 L18.3214286,13.8571429 C18.6961932,13.8571429 19,14.1609496 19,14.5357143 L19,19.9642857 C19,21.0885797 18.0885797,22 16.9642857,22 L2.03571429,22 C0.911420331,22 1.37686299e-16,21.0885797 0,19.9642857 L0,5.03571429 C-1.37686299e-16,3.91142033 0.911420331,3 2.03571429,3 L8.82142857,3 C9.19619322,3 9.5,3.30380678 9.5,3.67857143 L9.5,5.03571429 C9.5,5.41047894 9.19619322,5.71428571 8.82142857,5.71428571 L2.71428571,5.71428571 L2.71428571,19.2857143 L16.2857143,19.2857143 L16.2857143,14.5357143 C16.2857143,14.1609496 16.5895211,13.8571429 16.9642857,13.8571429 Z" id="Path" fill-opacity="0.95"></path>
            <path d="M20.7605099,9.91746707 L19.9690069,9.91746707 C19.2844554,9.91746707 18.7295168,9.36244191 18.7295168,8.67778369 L18.7295168,8.64324965 L18.8127397,5.66712404 L7.87468193,16.6874666 C7.46103877,17.1026173 6.78941152,17.1044001 6.37357085,16.6914513 L6.3709148,16.6887948 L5.31115074,15.6328502 C4.89628309,15.2178904 4.89628309,14.5451367 5.31115074,14.1301769 L5.31380679,14.1275204 L16.3337594,3.18775727 L13.3585404,3.27187865 C13.0296962,3.28128596 12.710602,3.15955712 12.4715522,2.93350816 C12.2325024,2.70745919 12.0931089,2.39563535 12.084079,2.0667293 L12.084079,1.23968338 C12.084079,0.555025156 12.6390176,1.25769676e-16 13.3235691,0 L20.3474941,0 C21.2601479,5.58926429e-17 22,0.739967467 22,1.6527636 L22,8.67778369 C22,9.36244191 21.4450614,9.91746707 20.7605099,9.91746707 Z" id="Path" fill-opacity="0.75"></path>
        </g>
    </g>
</svg>