<?xml version="1.0" encoding="UTF-8"?>
<svg width="135px" height="38px" viewBox="0 0 135 38" version="1.1" xmlns="http://www.w3.org/2000/svg" xmlns:xlink="http://www.w3.org/1999/xlink">
    <!-- Generator: Sketch 52.6 (67491) - http://www.bohemiancoding.com/sketch -->
    <title>open-link</title>
    <desc>Created with Sketch.</desc>
    <g id="Page-1" stroke="none" stroke-width="1" fill="none" fill-rule="evenodd">
        <g id="GitHub-Button" fill="#0070F3">
            <g id="Group-2">
                <rect id="Rectangle" x="0" y="0" width="135" height="38" rx="4"></rect>
            </g>
        </g>
        <path d="M48.7402344,24 L47.0585938,24 L43.53125,14.1357422 L45.1992188,14.1357422 L47.8583984,22.1679688 L47.9746094,22.1679688 L50.6201172,14.1357422 L52.2470703,14.1357422 L48.7402344,24 Z M54.5507812,15.25 C54.0380859,15.25 53.6210938,14.8330078 53.6210938,14.3271484 C53.6210938,13.8144531 54.0380859,13.3974609 54.5507812,13.3974609 C55.0634766,13.3974609 55.4804688,13.8144531 55.4804688,14.3271484 C55.4804688,14.8330078 55.0634766,15.25 54.5507812,15.25 Z M53.8193359,24 L53.8193359,16.5761719 L55.2822266,16.5761719 L55.2822266,24 L53.8193359,24 Z M57.2714844,18.6542969 C57.2714844,17.3623047 58.4814453,16.4326172 60.1630859,16.4326172 C61.8378906,16.4326172 62.9316406,17.2119141 63.0751953,18.4970703 L61.6669922,18.4970703 C61.5302734,17.9433594 60.9970703,17.5810547 60.1630859,17.5810547 C59.3427734,17.5810547 58.7207031,17.984375 58.7207031,18.5859375 C58.7207031,19.0439453 59.0966797,19.3310547 59.9033203,19.5224609 L61.140625,19.8095703 C62.5556641,20.1376953 63.21875,20.7460938 63.21875,21.8261719 C63.21875,23.2070312 61.9130859,24.1435547 60.1357422,24.1435547 C58.3652344,24.1435547 57.2099609,23.34375 57.0800781,22.0517578 L58.5498047,22.0517578 C58.734375,22.6328125 59.28125,22.9951172 60.1699219,22.9951172 C61.0859375,22.9951172 61.7353516,22.5712891 61.7353516,21.9628906 C61.7353516,21.4980469 61.3867188,21.1972656 60.6416016,21.0195312 L59.3427734,20.7119141 C57.9277344,20.3837891 57.2714844,19.7548828 57.2714844,18.6542969 Z M65.7480469,15.25 C65.2353516,15.25 64.8183594,14.8330078 64.8183594,14.3271484 C64.8183594,13.8144531 65.2353516,13.3974609 65.7480469,13.3974609 C66.2607422,13.3974609 66.6777344,13.8144531 66.6777344,14.3271484 C66.6777344,14.8330078 66.2607422,15.25 65.7480469,15.25 Z M65.0166016,24 L65.0166016,16.5761719 L66.4794922,16.5761719 L66.4794922,24 L65.0166016,24 Z M69.1591797,14.703125 L70.6289062,14.703125 L70.6289062,16.5966797 L72.2421875,16.5966797 L72.2421875,17.7724609 L70.6289062,17.7724609 L70.6289062,21.6894531 C70.6289062,22.4892578 70.9501953,22.8378906 71.6816406,22.8378906 C71.9072266,22.8378906 72.0371094,22.8242188 72.2421875,22.8037109 L72.2421875,23.9726562 C72.0029297,24.0136719 71.7294922,24.0478516 71.4423828,24.0478516 C69.8085938,24.0478516 69.1591797,23.4736328 69.1591797,22.0449219 L69.1591797,17.7724609 L67.9765625,17.7724609 L67.9765625,16.5966797 L69.1591797,16.5966797 L69.1591797,14.703125 Z M77.9707031,14.1357422 L81.8330078,14.1357422 C83.7607422,14.1357422 85.0869141,15.4619141 85.0869141,17.4033203 C85.0869141,19.3037109 83.7197266,20.6298828 81.7851562,20.6298828 L79.5019531,20.6298828 L79.5019531,24 L77.9707031,24 L77.9707031,14.1357422 Z M79.5019531,15.4277344 L79.5019531,19.3447266 L81.4296875,19.3447266 C82.7490234,19.3447266 83.5214844,18.640625 83.5214844,17.4033203 C83.5214844,16.125 82.7763672,15.4277344 81.4296875,15.4277344 L79.5019531,15.4277344 Z M86.8847656,24 L86.8847656,16.5761719 L88.2998047,16.5761719 L88.2998047,17.7041016 L88.4091797,17.7041016 C88.6210938,16.9726562 89.4482422,16.4462891 90.4189453,16.4462891 C90.6376953,16.4462891 90.9179688,16.4667969 91.0751953,16.5009766 L91.0751953,17.8818359 C90.9521484,17.8476562 90.5146484,17.7998047 90.2548828,17.7998047 C89.140625,17.7998047 88.3544922,18.5175781 88.3544922,19.5634766 L88.3544922,24 L86.8847656,24 Z M95.6347656,24.1435547 C93.4541016,24.1435547 92.1210938,22.6875 92.1210938,20.2880859 C92.1210938,17.8955078 93.4609375,16.4326172 95.6347656,16.4326172 C97.8017578,16.4326172 99.1416016,17.8886719 99.1416016,20.2880859 C99.1416016,22.6875 97.8085938,24.1435547 95.6347656,24.1435547 Z M95.6347656,22.8925781 C96.90625,22.8925781 97.6308594,21.9355469 97.6308594,20.2880859 C97.6308594,18.6337891 96.90625,17.6767578 95.6347656,17.6767578 C94.3564453,17.6767578 93.6386719,18.6337891 93.6386719,20.2880859 C93.6386719,21.9423828 94.3564453,22.8925781 95.6347656,22.8925781 Z M101.677734,15.25 C101.165039,15.25 100.748047,14.8330078 100.748047,14.3271484 C100.748047,13.8144531 101.165039,13.3974609 101.677734,13.3974609 C102.183594,13.3974609 102.607422,13.8144531 102.607422,14.3271484 C102.607422,14.8330078 102.183594,15.25 101.677734,15.25 Z M102.395508,16.5761719 L102.395508,24.3212891 C102.395508,25.8457031 101.609375,26.5429688 99.9960938,26.5429688 C99.9414062,26.5429688 99.7021484,26.5361328 99.6679688,26.5361328 L99.6679688,25.3603516 L99.8730469,25.3603516 C100.65918,25.3603516 100.932617,25.0595703 100.932617,24.3144531 L100.932617,16.5761719 L102.395508,16.5761719 Z M109.436523,22.0107422 L110.851562,22.0107422 C110.530273,23.3232422 109.327148,24.1435547 107.625,24.1435547 C105.492188,24.1435547 104.186523,22.6738281 104.186523,20.3017578 C104.186523,17.9433594 105.519531,16.4326172 107.618164,16.4326172 C109.689453,16.4326172 110.94043,17.8476562 110.94043,20.171875 L110.94043,20.6777344 L105.683594,20.6777344 L105.683594,20.7460938 C105.731445,22.0927734 106.490234,22.9404297 107.666016,22.9404297 C108.554688,22.9404297 109.163086,22.6123047 109.436523,22.0107422 Z M107.611328,17.6289062 C106.524414,17.6289062 105.765625,18.421875 105.683594,19.6181641 L109.443359,19.6181641 C109.40918,18.4150391 108.698242,17.6289062 107.611328,17.6289062 Z M119.006836,18.9619141 L117.578125,18.9619141 C117.407227,18.2373047 116.805664,17.6835938 115.821289,17.6835938 C114.59082,17.6835938 113.838867,18.6542969 113.838867,20.2607422 C113.838867,21.9013672 114.597656,22.8925781 115.821289,22.8925781 C116.750977,22.8925781 117.386719,22.4550781 117.578125,21.6484375 L119.006836,21.6484375 C118.81543,23.1113281 117.666992,24.1435547 115.828125,24.1435547 C113.661133,24.1435547 112.334961,22.6669922 112.334961,20.2607422 C112.334961,17.9023438 113.654297,16.4326172 115.821289,16.4326172 C117.6875,16.4326172 118.81543,17.5195312 119.006836,18.9619141 Z M121.201172,14.703125 L122.670898,14.703125 L122.670898,16.5966797 L124.28418,16.5966797 L124.28418,17.7724609 L122.670898,17.7724609 L122.670898,21.6894531 C122.670898,22.4892578 122.992188,22.8378906 123.723633,22.8378906 C123.949219,22.8378906 124.079102,22.8242188 124.28418,22.8037109 L124.28418,23.9726562 C124.044922,24.0136719 123.771484,24.0478516 123.484375,24.0478516 C121.850586,24.0478516 121.201172,23.4736328 121.201172,22.0449219 L121.201172,17.7724609 L120.018555,17.7724609 L120.018555,16.5966797 L121.201172,16.5966797 L121.201172,14.703125 Z" id="Visit-Project-Copy" fill="#FFFFFF"></path>
        <g id="external-link" transform="translate(9.000000, 7.000000)" fill="#FFFFFF">
            <path d="M16.9642857,13.8571429 L18.3214286,13.8571429 C18.6961932,13.8571429 19,14.1609496 19,14.5357143 L19,19.9642857 C19,21.0885797 18.0885797,22 16.9642857,22 L2.03571429,22 C0.911420331,22 1.37686299e-16,21.0885797 0,19.9642857 L0,5.03571429 C-1.37686299e-16,3.91142033 0.911420331,3 2.03571429,3 L8.82142857,3 C9.19619322,3 9.5,3.30380678 9.5,3.67857143 L9.5,5.03571429 C9.5,5.41047894 9.19619322,5.71428571 8.82142857,5.71428571 L2.71428571,5.71428571 L2.71428571,19.2857143 L16.2857143,19.2857143 L16.2857143,14.5357143 C16.2857143,14.1609496 16.5895211,13.8571429 16.9642857,13.8571429 Z" id="Path" fill-opacity="0.95"></path>
            <path d="M20.7605099,9.91746707 L19.9690069,9.91746707 C19.2844554,9.91746707 18.7295168,9.36244191 18.7295168,8.67778369 L18.7295168,8.64324965 L18.8127397,5.66712404 L7.87468193,16.6874666 C7.46103877,17.1026173 6.78941152,17.1044001 6.37357085,16.6914513 L6.3709148,16.6887948 L5.31115074,15.6328502 C4.89628309,15.2178904 4.89628309,14.5451367 5.31115074,14.1301769 L5.31380679,14.1275204 L16.3337594,3.18775727 L13.3585404,3.27187865 C13.0296962,3.28128596 12.710602,3.15955712 12.4715522,2.93350816 C12.2325024,2.70745919 12.0931089,2.39563535 12.084079,2.0667293 L12.084079,1.23968338 C12.084079,0.555025156 12.6390176,1.25769676e-16 13.3235691,0 L20.3474941,0 C21.2601479,5.58926429e-17 22,0.739967467 22,1.6527636 L22,8.67778369 C22,9.36244191 21.4450614,9.91746707 20.7605099,9.91746707 Z" id="Path" fill-opacity="0.75"></path>
        </g>
    </g>
</svg>