<?xml version="1.0" encoding="UTF-8"?>
<svg width="133px" height="38px" viewBox="0 0 133 38" version="1.1" xmlns="http://www.w3.org/2000/svg" xmlns:xlink="http://www.w3.org/1999/xlink">
    <!-- Generator: Sketch 52.6 (67491) - http://www.bohemiancoding.com/sketch -->
    <title>buy-button</title>
    <desc>Created with Sketch.</desc>
    <g id="Symbols" stroke="none" stroke-width="1" fill="none" fill-rule="evenodd">
        <g id="Buy-Button">
            <g id="Group-3">
                <g id="Group-2">
                    <rect id="Rectangle" fill="#0070F3" x="0" y="0" width="133" height="38" rx="4"></rect>
                    <path d="M53.1245117,8.13574219 L56.9868164,8.13574219 C58.9145508,8.13574219 60.2407227,9.46191406 60.2407227,11.4033203 C60.2407227,13.3037109 58.8735352,14.6298828 56.9389648,14.6298828 L54.6557617,14.6298828 L54.6557617,18 L53.1245117,18 L53.1245117,8.13574219 Z M54.6557617,9.42773438 L54.6557617,13.3447266 L56.5834961,13.3447266 C57.902832,13.3447266 58.675293,12.640625 58.675293,11.4033203 C58.675293,10.125 57.9301758,9.42773438 56.5834961,9.42773438 L54.6557617,9.42773438 Z M68.3139648,10.5761719 L68.3139648,18 L66.8989258,18 L66.8989258,16.8242188 L66.7827148,16.8242188 C66.4204102,17.6650391 65.6616211,18.1435547 64.5336914,18.1435547 C62.8862305,18.1435547 61.9702148,17.1386719 61.9702148,15.3955078 L61.9702148,10.5761719 L63.4399414,10.5761719 L63.4399414,15.0332031 C63.4399414,16.2636719 63.925293,16.8515625 65.0053711,16.8515625 C66.1948242,16.8515625 66.8442383,16.1269531 66.8442383,14.9306641 L66.8442383,10.5761719 L68.3139648,10.5761719 Z M70.4467773,18 L70.4467773,10.5761719 L71.8618164,10.5761719 L71.8618164,11.7041016 L71.9711914,11.7041016 C72.1831055,10.9726562 73.0102539,10.4462891 73.980957,10.4462891 C74.199707,10.4462891 74.4799805,10.4667969 74.637207,10.5009766 L74.637207,11.8818359 C74.5141602,11.8476562 74.0766602,11.7998047 73.8168945,11.7998047 C72.7026367,11.7998047 71.9165039,12.5175781 71.9165039,13.5634766 L71.9165039,18 L70.4467773,18 Z M82.3549805,12.9619141 L80.9262695,12.9619141 C80.7553711,12.2373047 80.1538086,11.6835938 79.1694336,11.6835938 C77.9389648,11.6835938 77.1870117,12.6542969 77.1870117,14.2607422 C77.1870117,15.9013672 77.9458008,16.8925781 79.1694336,16.8925781 C80.0991211,16.8925781 80.7348633,16.4550781 80.9262695,15.6484375 L82.3549805,15.6484375 C82.1635742,17.1113281 81.0151367,18.1435547 79.1762695,18.1435547 C77.0092773,18.1435547 75.6831055,16.6669922 75.6831055,14.2607422 C75.6831055,11.9023438 77.0024414,10.4326172 79.1694336,10.4326172 C81.0356445,10.4326172 82.1635742,11.5195312 82.3549805,12.9619141 Z M84.0981445,18 L84.0981445,7.6640625 L85.5541992,7.6640625 L85.5541992,11.7587891 L85.6704102,11.7587891 C86.0327148,10.9316406 86.8188477,10.4394531 87.9399414,10.4394531 C89.5258789,10.4394531 90.503418,11.4443359 90.503418,13.2011719 L90.503418,18 L89.0336914,18 L89.0336914,13.5498047 C89.0336914,12.3261719 88.4799805,11.7177734 87.440918,11.7177734 C86.237793,11.7177734 85.5678711,12.4902344 85.5678711,13.6523438 L85.5678711,18 L84.0981445,18 Z M94.6254883,18.1230469 C93.1899414,18.1230469 92.144043,17.2617188 92.144043,15.9082031 C92.144043,14.5751953 93.1420898,13.8027344 94.9125977,13.6933594 L96.9291992,13.5703125 L96.9291992,12.9208984 C96.9291992,12.1074219 96.409668,11.6494141 95.4047852,11.6494141 C94.5844727,11.6494141 94.0170898,11.9570312 93.8530273,12.4970703 L92.4311523,12.4970703 C92.581543,11.2460938 93.784668,10.4326172 95.4731445,10.4326172 C97.3393555,10.4326172 98.3920898,11.3623047 98.3920898,12.9208984 L98.3920898,18 L96.9770508,18 L96.9770508,16.9472656 L96.8608398,16.9472656 C96.4165039,17.6992188 95.6030273,18.1230469 94.6254883,18.1230469 Z M95.0014648,16.9404297 C96.1088867,16.9404297 96.9291992,16.2158203 96.9291992,15.2587891 L96.9291992,14.6162109 L95.1108398,14.7392578 C94.0854492,14.8076172 93.6206055,15.1699219 93.6206055,15.8466797 C93.6206055,16.5371094 94.2016602,16.9404297 95.0014648,16.9404297 Z M100.312988,12.6542969 C100.312988,11.3623047 101.522949,10.4326172 103.20459,10.4326172 C104.879395,10.4326172 105.973145,11.2119141 106.116699,12.4970703 L104.708496,12.4970703 C104.571777,11.9433594 104.038574,11.5810547 103.20459,11.5810547 C102.384277,11.5810547 101.762207,11.984375 101.762207,12.5859375 C101.762207,13.0439453 102.138184,13.3310547 102.944824,13.5224609 L104.182129,13.8095703 C105.597168,14.1376953 106.260254,14.7460938 106.260254,15.8261719 C106.260254,17.2070312 104.95459,18.1435547 103.177246,18.1435547 C101.406738,18.1435547 100.251465,17.34375 100.121582,16.0517578 L101.591309,16.0517578 C101.775879,16.6328125 102.322754,16.9951172 103.211426,16.9951172 C104.127441,16.9951172 104.776855,16.5712891 104.776855,15.9628906 C104.776855,15.4980469 104.428223,15.1972656 103.683105,15.0195312 L102.384277,14.7119141 C100.969238,14.3837891 100.312988,13.7548828 100.312988,12.6542969 Z M112.911621,16.0107422 L114.32666,16.0107422 C114.005371,17.3232422 112.802246,18.1435547 111.100098,18.1435547 C108.967285,18.1435547 107.661621,16.6738281 107.661621,14.3017578 C107.661621,11.9433594 108.994629,10.4326172 111.093262,10.4326172 C113.164551,10.4326172 114.415527,11.8476562 114.415527,14.171875 L114.415527,14.6777344 L109.158691,14.6777344 L109.158691,14.7460938 C109.206543,16.0927734 109.965332,16.9404297 111.141113,16.9404297 C112.029785,16.9404297 112.638184,16.6123047 112.911621,16.0107422 Z M111.086426,11.6289062 C109.999512,11.6289062 109.240723,12.421875 109.158691,13.6181641 L112.918457,13.6181641 C112.884277,12.4150391 112.17334,11.6289062 111.086426,11.6289062 Z M53.9150391,29.0478516 L53.9150391,30 L49.5205078,30 L49.5205078,22.9541016 L50.6142578,22.9541016 L50.6142578,29.0478516 L53.9150391,29.0478516 Z M56.6445312,30.0878906 C55.6191406,30.0878906 54.8720703,29.4726562 54.8720703,28.5058594 C54.8720703,27.5537109 55.5849609,27.0019531 56.8496094,26.9238281 L58.2900391,26.8359375 L58.2900391,26.3720703 C58.2900391,25.7910156 57.9189453,25.4638672 57.2011719,25.4638672 C56.6152344,25.4638672 56.2099609,25.6835938 56.0927734,26.0693359 L55.0771484,26.0693359 C55.1845703,25.1757812 56.0439453,24.5947266 57.25,24.5947266 C58.5830078,24.5947266 59.3349609,25.2587891 59.3349609,26.3720703 L59.3349609,30 L58.3242188,30 L58.3242188,29.2480469 L58.2412109,29.2480469 C57.9238281,29.7851562 57.3427734,30.0878906 56.6445312,30.0878906 Z M56.9130859,29.2431641 C57.7041016,29.2431641 58.2900391,28.7255859 58.2900391,28.0419922 L58.2900391,27.5830078 L56.9912109,27.6708984 C56.2587891,27.7197266 55.9267578,27.9785156 55.9267578,28.4619141 C55.9267578,28.9550781 56.3417969,29.2431641 56.9130859,29.2431641 Z M61.2001953,23.359375 L62.25,23.359375 L62.25,24.7119141 L63.4023438,24.7119141 L63.4023438,25.5517578 L62.25,25.5517578 L62.25,28.3496094 C62.25,28.9208984 62.4794922,29.1699219 63.0019531,29.1699219 C63.1630859,29.1699219 63.2558594,29.1601562 63.4023438,29.1455078 L63.4023438,29.9804688 C63.2314453,30.0097656 63.0361328,30.0341797 62.8310547,30.0341797 C61.6640625,30.0341797 61.2001953,29.6240234 61.2001953,28.6035156 L61.2001953,25.5517578 L60.3554688,25.5517578 L60.3554688,24.7119141 L61.2001953,24.7119141 L61.2001953,23.359375 Z M68.1240234,28.5791016 L69.1347656,28.5791016 C68.9052734,29.5166016 68.0458984,30.1025391 66.8300781,30.1025391 C65.3066406,30.1025391 64.3740234,29.0527344 64.3740234,27.3583984 C64.3740234,25.6738281 65.3261719,24.5947266 66.8251953,24.5947266 C68.3046875,24.5947266 69.1982422,25.6054688 69.1982422,27.265625 L69.1982422,27.6269531 L65.4433594,27.6269531 L65.4433594,27.6757812 C65.4775391,28.6376953 66.0195312,29.2431641 66.859375,29.2431641 C67.4941406,29.2431641 67.9287109,29.0087891 68.1240234,28.5791016 Z M66.8203125,25.4492188 C66.0439453,25.4492188 65.5019531,26.015625 65.4433594,26.8701172 L68.1289062,26.8701172 C68.1044922,26.0107422 67.5966797,25.4492188 66.8203125,25.4492188 Z M70.3359375,26.1816406 C70.3359375,25.2587891 71.2001953,24.5947266 72.4013672,24.5947266 C73.5976562,24.5947266 74.3789062,25.1513672 74.4814453,26.0693359 L73.4755859,26.0693359 C73.3779297,25.6738281 72.9970703,25.4150391 72.4013672,25.4150391 C71.8154297,25.4150391 71.3710938,25.703125 71.3710938,26.1328125 C71.3710938,26.4599609 71.6396484,26.6650391 72.2158203,26.8017578 L73.0996094,27.0068359 C74.1103516,27.2412109 74.5839844,27.6757812 74.5839844,28.4472656 C74.5839844,29.4335938 73.6513672,30.1025391 72.3818359,30.1025391 C71.1171875,30.1025391 70.2919922,29.53125 70.1992188,28.6083984 L71.2490234,28.6083984 C71.3808594,29.0234375 71.7714844,29.2822266 72.40625,29.2822266 C73.0605469,29.2822266 73.5244141,28.9794922 73.5244141,28.5449219 C73.5244141,28.2128906 73.2753906,27.9980469 72.7431641,27.8710938 L71.8154297,27.6513672 C70.8046875,27.4169922 70.3359375,26.9677734 70.3359375,26.1816406 Z M76.2197266,23.359375 L77.2695312,23.359375 L77.2695312,24.7119141 L78.421875,24.7119141 L78.421875,25.5517578 L77.2695312,25.5517578 L77.2695312,28.3496094 C77.2695312,28.9208984 77.4990234,29.1699219 78.0214844,29.1699219 C78.1826172,29.1699219 78.2753906,29.1601562 78.421875,29.1455078 L78.421875,29.9804688 C78.2509766,30.0097656 78.0556641,30.0341797 77.8505859,30.0341797 C76.6835938,30.0341797 76.2197266,29.6240234 76.2197266,28.6035156 L76.2197266,25.5517578 L75.375,25.5517578 L75.375,24.7119141 L76.2197266,24.7119141 L76.2197266,23.359375 Z M85.6923828,30 L84.4912109,30 L81.9716797,22.9541016 L83.1630859,22.9541016 L85.0625,28.6914062 L85.1455078,28.6914062 L87.0351562,22.9541016 L88.1972656,22.9541016 L85.6923828,30 Z M92.7871094,28.5791016 L93.7978516,28.5791016 C93.5683594,29.5166016 92.7089844,30.1025391 91.4931641,30.1025391 C89.9697266,30.1025391 89.0371094,29.0527344 89.0371094,27.3583984 C89.0371094,25.6738281 89.9892578,24.5947266 91.4882812,24.5947266 C92.9677734,24.5947266 93.8613281,25.6054688 93.8613281,27.265625 L93.8613281,27.6269531 L90.1064453,27.6269531 L90.1064453,27.6757812 C90.140625,28.6376953 90.6826172,29.2431641 91.5224609,29.2431641 C92.1572266,29.2431641 92.5917969,29.0087891 92.7871094,28.5791016 Z M91.4833984,25.4492188 C90.7070312,25.4492188 90.1650391,26.015625 90.1064453,26.8701172 L92.7919922,26.8701172 C92.7675781,26.0107422 92.2597656,25.4492188 91.4833984,25.4492188 Z M95.1210938,30 L95.1210938,24.6972656 L96.1318359,24.6972656 L96.1318359,25.5029297 L96.2099609,25.5029297 C96.3613281,24.9804688 96.9521484,24.6044922 97.6455078,24.6044922 C97.8017578,24.6044922 98.0019531,24.6191406 98.1142578,24.6435547 L98.1142578,25.6298828 C98.0263672,25.6054688 97.7138672,25.5712891 97.5283203,25.5712891 C96.7324219,25.5712891 96.1708984,26.0839844 96.1708984,26.8310547 L96.1708984,30 L95.1210938,30 Z M99.0029297,26.1816406 C99.0029297,25.2587891 99.8671875,24.5947266 101.068359,24.5947266 C102.264648,24.5947266 103.045898,25.1513672 103.148438,26.0693359 L102.142578,26.0693359 C102.044922,25.6738281 101.664062,25.4150391 101.068359,25.4150391 C100.482422,25.4150391 100.038086,25.703125 100.038086,26.1328125 C100.038086,26.4599609 100.306641,26.6650391 100.882812,26.8017578 L101.766602,27.0068359 C102.777344,27.2412109 103.250977,27.6757812 103.250977,28.4472656 C103.250977,29.4335938 102.318359,30.1025391 101.048828,30.1025391 C99.7841797,30.1025391 98.9589844,29.53125 98.8662109,28.6083984 L99.9160156,28.6083984 C100.047852,29.0234375 100.438477,29.2822266 101.073242,29.2822266 C101.727539,29.2822266 102.191406,28.9794922 102.191406,28.5449219 C102.191406,28.2128906 101.942383,27.9980469 101.410156,27.8710938 L100.482422,27.6513672 C99.4716797,27.4169922 99.0029297,26.9677734 99.0029297,26.1816406 Z M105.057617,23.75 C104.691406,23.75 104.393555,23.4521484 104.393555,23.0908203 C104.393555,22.7246094 104.691406,22.4267578 105.057617,22.4267578 C105.423828,22.4267578 105.72168,22.7246094 105.72168,23.0908203 C105.72168,23.4521484 105.423828,23.75 105.057617,23.75 Z M104.535156,30 L104.535156,24.6972656 L105.580078,24.6972656 L105.580078,30 L104.535156,30 Z M109.369141,30.1025391 C107.811523,30.1025391 106.859375,29.0625 106.859375,27.3486328 C106.859375,25.6396484 107.816406,24.5947266 109.369141,24.5947266 C110.916992,24.5947266 111.874023,25.6347656 111.874023,27.3486328 C111.874023,29.0625 110.921875,30.1025391 109.369141,30.1025391 Z M109.369141,29.2089844 C110.277344,29.2089844 110.794922,28.5253906 110.794922,27.3486328 C110.794922,26.1669922 110.277344,25.4833984 109.369141,25.4833984 C108.456055,25.4833984 107.943359,26.1669922 107.943359,27.3486328 C107.943359,28.5302734 108.456055,29.2089844 109.369141,29.2089844 Z M113.133789,30 L113.133789,24.6972656 L114.144531,24.6972656 L114.144531,25.5371094 L114.222656,25.5371094 C114.481445,24.9511719 115.008789,24.5947266 115.80957,24.5947266 C116.996094,24.5947266 117.650391,25.3027344 117.650391,26.5673828 L117.650391,30 L116.600586,30 L116.600586,26.8164062 C116.600586,25.9375 116.229492,25.5078125 115.453125,25.5078125 C114.676758,25.5078125 114.183594,26.0351562 114.183594,26.8896484 L114.183594,30 L113.133789,30 Z" id="Purchase-Latest-Vers-Copy" fill="#FFFFFF"></path>
                </g>
                <g id="download" transform="translate(9.000000, 8.000000)" fill="#FFFFFF">
                    <path d="M26.9062756,3.00000013 L9,3 L11.3869564,14 L24.7509033,14 C25.2616669,13.999941 25.7044292,13.6667912 25.8176485,13.1973438 L27.972565,4.25984387 C28.1064308,3.70455121 27.7374467,3.1520903 27.1483447,3.02578138 C27.0689449,3.00860979 26.9877387,2.99996104 26.9062756,3.00000013 Z" id="Path" fill-opacity="0.72"></path>
                    <path d="M10.1732428,15.8122583 L22.6925067,15.8122583 C23.0329637,15.8122985 23.3548965,15.9615692 23.5672683,16.2178596 C23.77964,16.4741499 23.8593642,16.8095988 23.7838962,17.1293475 L23.5264402,18.220034 C24.5514291,18.6981312 25.1366178,19.7607664 24.9726707,20.8462217 C24.8087235,21.931677 23.9334407,22.7896868 22.809504,22.9666999 C21.6855674,23.1437129 20.5721148,22.5989167 20.0577268,21.620295 C19.5433388,20.6416733 19.746614,19.4548599 20.5600995,18.6872144 L10.7823688,18.6872144 C11.5839862,19.4434615 11.7945016,20.6083362 11.305327,21.5809726 C10.8161523,22.553609 9.73661714,23.1166246 8.62356752,22.9796047 C7.51051791,22.8425847 6.6127184,22.0361528 6.39327208,20.9762829 C6.17382577,19.916413 6.6817785,18.839984 7.65511803,18.3022398 L4.37861744,2.87495605 L1.11937387,2.87495605 C0.50116075,2.87495605 7.57092713e-17,2.39227043 0,1.79684753 L0,1.07810852 C-7.57092713e-17,0.482685626 0.50116075,1.09377411e-16 1.11937387,0 L5.9014323,0 C6.43241635,0.000917682738 6.88966929,0.361003249 6.99608666,0.862037605 L10.1732428,15.8122583 Z" id="Path"></path>
                </g>
            </g>
        </g>
    </g>
</svg>