<?xml version="1.0" encoding="UTF-8"?>
<svg width="135px" height="38px" viewBox="0 0 135 38" version="1.1" xmlns="http://www.w3.org/2000/svg" xmlns:xlink="http://www.w3.org/1999/xlink">
    <!-- Generator: Sketch 52.6 (67491) - http://www.bohemiancoding.com/sketch -->
    <title>download-button</title>
    <desc>Created with Sketch.</desc>
    <g id="Symbols" stroke="none" stroke-width="1" fill="none" fill-rule="evenodd">
        <g id="Download-Button">
            <g id="Group-3">
                <g id="Group-2">
                    <rect id="Rectangle" fill="#0070F3" x="0" y="0" width="135" height="38" rx="4"></rect>
                    <path d="M51.1660156,8.13574219 L54.7275391,8.13574219 C57.6533203,8.13574219 59.3691406,9.94042969 59.3691406,13.0439453 C59.3691406,16.1816406 57.6669922,18 54.7275391,18 L51.1660156,18 L51.1660156,8.13574219 Z M52.6972656,9.45507812 L52.6972656,16.6806641 L54.5566406,16.6806641 C56.6210938,16.6806641 57.8105469,15.3613281 57.8105469,13.0644531 C57.8105469,10.7880859 56.6005859,9.45507812 54.5566406,9.45507812 L52.6972656,9.45507812 Z M64.4140625,18.1435547 C62.2333984,18.1435547 60.9003906,16.6875 60.9003906,14.2880859 C60.9003906,11.8955078 62.2402344,10.4326172 64.4140625,10.4326172 C66.5810547,10.4326172 67.9208984,11.8886719 67.9208984,14.2880859 C67.9208984,16.6875 66.5878906,18.1435547 64.4140625,18.1435547 Z M64.4140625,16.8925781 C65.6855469,16.8925781 66.4101562,15.9355469 66.4101562,14.2880859 C66.4101562,12.6337891 65.6855469,11.6767578 64.4140625,11.6767578 C63.1357422,11.6767578 62.4179688,12.6337891 62.4179688,14.2880859 C62.4179688,15.9423828 63.1357422,16.8925781 64.4140625,16.8925781 Z M79.3779297,10.5761719 L77.3339844,18 L75.8095703,18 L74.2714844,12.4628906 L74.1552734,12.4628906 L72.6240234,18 L71.1132812,18 L69.0625,10.5761719 L70.5527344,10.5761719 L71.8857422,16.3046875 L71.9951172,16.3046875 L73.5263672,10.5761719 L74.9345703,10.5761719 L76.4658203,16.3046875 L76.5820312,16.3046875 L77.9082031,10.5761719 L79.3779297,10.5761719 Z M80.8955078,18 L80.8955078,10.5761719 L82.3105469,10.5761719 L82.3105469,11.7519531 L82.4199219,11.7519531 C82.7822266,10.9316406 83.5205078,10.4326172 84.6416016,10.4326172 C86.3027344,10.4326172 87.21875,11.4238281 87.21875,13.1943359 L87.21875,18 L85.7490234,18 L85.7490234,13.5429688 C85.7490234,12.3125 85.2294922,11.7109375 84.1425781,11.7109375 C83.0556641,11.7109375 82.3652344,12.4492188 82.3652344,13.6455078 L82.3652344,18 L80.8955078,18 Z M89.3515625,18 L89.3515625,7.6640625 L90.8212891,7.6640625 L90.8212891,18 L89.3515625,18 Z M96.1669922,18.1435547 C93.9863281,18.1435547 92.6533203,16.6875 92.6533203,14.2880859 C92.6533203,11.8955078 93.9931641,10.4326172 96.1669922,10.4326172 C98.3339844,10.4326172 99.6738281,11.8886719 99.6738281,14.2880859 C99.6738281,16.6875 98.3408203,18.1435547 96.1669922,18.1435547 Z M96.1669922,16.8925781 C97.4384766,16.8925781 98.1630859,15.9355469 98.1630859,14.2880859 C98.1630859,12.6337891 97.4384766,11.6767578 96.1669922,11.6767578 C94.8886719,11.6767578 94.1708984,12.6337891 94.1708984,14.2880859 C94.1708984,15.9423828 94.8886719,16.8925781 96.1669922,16.8925781 Z M103.495117,18.1230469 C102.05957,18.1230469 101.013672,17.2617188 101.013672,15.9082031 C101.013672,14.5751953 102.011719,13.8027344 103.782227,13.6933594 L105.798828,13.5703125 L105.798828,12.9208984 C105.798828,12.1074219 105.279297,11.6494141 104.274414,11.6494141 C103.454102,11.6494141 102.886719,11.9570312 102.722656,12.4970703 L101.300781,12.4970703 C101.451172,11.2460938 102.654297,10.4326172 104.342773,10.4326172 C106.208984,10.4326172 107.261719,11.3623047 107.261719,12.9208984 L107.261719,18 L105.84668,18 L105.84668,16.9472656 L105.730469,16.9472656 C105.286133,17.6992188 104.472656,18.1230469 103.495117,18.1230469 Z M103.871094,16.9404297 C104.978516,16.9404297 105.798828,16.2158203 105.798828,15.2587891 L105.798828,14.6162109 L103.980469,14.7392578 C102.955078,14.8076172 102.490234,15.1699219 102.490234,15.8466797 C102.490234,16.5371094 103.071289,16.9404297 103.871094,16.9404297 Z M112.074219,18.1230469 C110.180664,18.1230469 108.984375,16.6328125 108.984375,14.28125 C108.984375,11.9433594 110.194336,10.4462891 112.074219,10.4462891 C113.092773,10.4462891 113.954102,10.9384766 114.357422,11.7519531 L114.466797,11.7519531 L114.466797,7.6640625 L115.936523,7.6640625 L115.936523,18 L114.52832,18 L114.52832,16.8242188 L114.412109,16.8242188 C113.967773,17.6376953 113.099609,18.1230469 112.074219,18.1230469 Z M112.491211,11.7041016 C111.253906,11.7041016 110.501953,12.6816406 110.501953,14.2880859 C110.501953,15.9013672 111.24707,16.8652344 112.491211,16.8652344 C113.728516,16.8652344 114.494141,15.8876953 114.494141,14.2880859 C114.494141,12.7021484 113.72168,11.7041016 112.491211,11.7041016 Z M53.9150391,29.0478516 L53.9150391,30 L49.5205078,30 L49.5205078,22.9541016 L50.6142578,22.9541016 L50.6142578,29.0478516 L53.9150391,29.0478516 Z M56.6445312,30.0878906 C55.6191406,30.0878906 54.8720703,29.4726562 54.8720703,28.5058594 C54.8720703,27.5537109 55.5849609,27.0019531 56.8496094,26.9238281 L58.2900391,26.8359375 L58.2900391,26.3720703 C58.2900391,25.7910156 57.9189453,25.4638672 57.2011719,25.4638672 C56.6152344,25.4638672 56.2099609,25.6835938 56.0927734,26.0693359 L55.0771484,26.0693359 C55.1845703,25.1757812 56.0439453,24.5947266 57.25,24.5947266 C58.5830078,24.5947266 59.3349609,25.2587891 59.3349609,26.3720703 L59.3349609,30 L58.3242188,30 L58.3242188,29.2480469 L58.2412109,29.2480469 C57.9238281,29.7851562 57.3427734,30.0878906 56.6445312,30.0878906 Z M56.9130859,29.2431641 C57.7041016,29.2431641 58.2900391,28.7255859 58.2900391,28.0419922 L58.2900391,27.5830078 L56.9912109,27.6708984 C56.2587891,27.7197266 55.9267578,27.9785156 55.9267578,28.4619141 C55.9267578,28.9550781 56.3417969,29.2431641 56.9130859,29.2431641 Z M61.2001953,23.359375 L62.25,23.359375 L62.25,24.7119141 L63.4023438,24.7119141 L63.4023438,25.5517578 L62.25,25.5517578 L62.25,28.3496094 C62.25,28.9208984 62.4794922,29.1699219 63.0019531,29.1699219 C63.1630859,29.1699219 63.2558594,29.1601562 63.4023438,29.1455078 L63.4023438,29.9804688 C63.2314453,30.0097656 63.0361328,30.0341797 62.8310547,30.0341797 C61.6640625,30.0341797 61.2001953,29.6240234 61.2001953,28.6035156 L61.2001953,25.5517578 L60.3554688,25.5517578 L60.3554688,24.7119141 L61.2001953,24.7119141 L61.2001953,23.359375 Z M68.1240234,28.5791016 L69.1347656,28.5791016 C68.9052734,29.5166016 68.0458984,30.1025391 66.8300781,30.1025391 C65.3066406,30.1025391 64.3740234,29.0527344 64.3740234,27.3583984 C64.3740234,25.6738281 65.3261719,24.5947266 66.8251953,24.5947266 C68.3046875,24.5947266 69.1982422,25.6054688 69.1982422,27.265625 L69.1982422,27.6269531 L65.4433594,27.6269531 L65.4433594,27.6757812 C65.4775391,28.6376953 66.0195312,29.2431641 66.859375,29.2431641 C67.4941406,29.2431641 67.9287109,29.0087891 68.1240234,28.5791016 Z M66.8203125,25.4492188 C66.0439453,25.4492188 65.5019531,26.015625 65.4433594,26.8701172 L68.1289062,26.8701172 C68.1044922,26.0107422 67.5966797,25.4492188 66.8203125,25.4492188 Z M70.3359375,26.1816406 C70.3359375,25.2587891 71.2001953,24.5947266 72.4013672,24.5947266 C73.5976562,24.5947266 74.3789062,25.1513672 74.4814453,26.0693359 L73.4755859,26.0693359 C73.3779297,25.6738281 72.9970703,25.4150391 72.4013672,25.4150391 C71.8154297,25.4150391 71.3710938,25.703125 71.3710938,26.1328125 C71.3710938,26.4599609 71.6396484,26.6650391 72.2158203,26.8017578 L73.0996094,27.0068359 C74.1103516,27.2412109 74.5839844,27.6757812 74.5839844,28.4472656 C74.5839844,29.4335938 73.6513672,30.1025391 72.3818359,30.1025391 C71.1171875,30.1025391 70.2919922,29.53125 70.1992188,28.6083984 L71.2490234,28.6083984 C71.3808594,29.0234375 71.7714844,29.2822266 72.40625,29.2822266 C73.0605469,29.2822266 73.5244141,28.9794922 73.5244141,28.5449219 C73.5244141,28.2128906 73.2753906,27.9980469 72.7431641,27.8710938 L71.8154297,27.6513672 C70.8046875,27.4169922 70.3359375,26.9677734 70.3359375,26.1816406 Z M76.2197266,23.359375 L77.2695312,23.359375 L77.2695312,24.7119141 L78.421875,24.7119141 L78.421875,25.5517578 L77.2695312,25.5517578 L77.2695312,28.3496094 C77.2695312,28.9208984 77.4990234,29.1699219 78.0214844,29.1699219 C78.1826172,29.1699219 78.2753906,29.1601562 78.421875,29.1455078 L78.421875,29.9804688 C78.2509766,30.0097656 78.0556641,30.0341797 77.8505859,30.0341797 C76.6835938,30.0341797 76.2197266,29.6240234 76.2197266,28.6035156 L76.2197266,25.5517578 L75.375,25.5517578 L75.375,24.7119141 L76.2197266,24.7119141 L76.2197266,23.359375 Z M85.6923828,30 L84.4912109,30 L81.9716797,22.9541016 L83.1630859,22.9541016 L85.0625,28.6914062 L85.1455078,28.6914062 L87.0351562,22.9541016 L88.1972656,22.9541016 L85.6923828,30 Z M92.7871094,28.5791016 L93.7978516,28.5791016 C93.5683594,29.5166016 92.7089844,30.1025391 91.4931641,30.1025391 C89.9697266,30.1025391 89.0371094,29.0527344 89.0371094,27.3583984 C89.0371094,25.6738281 89.9892578,24.5947266 91.4882812,24.5947266 C92.9677734,24.5947266 93.8613281,25.6054688 93.8613281,27.265625 L93.8613281,27.6269531 L90.1064453,27.6269531 L90.1064453,27.6757812 C90.140625,28.6376953 90.6826172,29.2431641 91.5224609,29.2431641 C92.1572266,29.2431641 92.5917969,29.0087891 92.7871094,28.5791016 Z M91.4833984,25.4492188 C90.7070312,25.4492188 90.1650391,26.015625 90.1064453,26.8701172 L92.7919922,26.8701172 C92.7675781,26.0107422 92.2597656,25.4492188 91.4833984,25.4492188 Z M95.1210938,30 L95.1210938,24.6972656 L96.1318359,24.6972656 L96.1318359,25.5029297 L96.2099609,25.5029297 C96.3613281,24.9804688 96.9521484,24.6044922 97.6455078,24.6044922 C97.8017578,24.6044922 98.0019531,24.6191406 98.1142578,24.6435547 L98.1142578,25.6298828 C98.0263672,25.6054688 97.7138672,25.5712891 97.5283203,25.5712891 C96.7324219,25.5712891 96.1708984,26.0839844 96.1708984,26.8310547 L96.1708984,30 L95.1210938,30 Z M99.0029297,26.1816406 C99.0029297,25.2587891 99.8671875,24.5947266 101.068359,24.5947266 C102.264648,24.5947266 103.045898,25.1513672 103.148438,26.0693359 L102.142578,26.0693359 C102.044922,25.6738281 101.664062,25.4150391 101.068359,25.4150391 C100.482422,25.4150391 100.038086,25.703125 100.038086,26.1328125 C100.038086,26.4599609 100.306641,26.6650391 100.882812,26.8017578 L101.766602,27.0068359 C102.777344,27.2412109 103.250977,27.6757812 103.250977,28.4472656 C103.250977,29.4335938 102.318359,30.1025391 101.048828,30.1025391 C99.7841797,30.1025391 98.9589844,29.53125 98.8662109,28.6083984 L99.9160156,28.6083984 C100.047852,29.0234375 100.438477,29.2822266 101.073242,29.2822266 C101.727539,29.2822266 102.191406,28.9794922 102.191406,28.5449219 C102.191406,28.2128906 101.942383,27.9980469 101.410156,27.8710938 L100.482422,27.6513672 C99.4716797,27.4169922 99.0029297,26.9677734 99.0029297,26.1816406 Z M105.057617,23.75 C104.691406,23.75 104.393555,23.4521484 104.393555,23.0908203 C104.393555,22.7246094 104.691406,22.4267578 105.057617,22.4267578 C105.423828,22.4267578 105.72168,22.7246094 105.72168,23.0908203 C105.72168,23.4521484 105.423828,23.75 105.057617,23.75 Z M104.535156,30 L104.535156,24.6972656 L105.580078,24.6972656 L105.580078,30 L104.535156,30 Z M109.369141,30.1025391 C107.811523,30.1025391 106.859375,29.0625 106.859375,27.3486328 C106.859375,25.6396484 107.816406,24.5947266 109.369141,24.5947266 C110.916992,24.5947266 111.874023,25.6347656 111.874023,27.3486328 C111.874023,29.0625 110.921875,30.1025391 109.369141,30.1025391 Z M109.369141,29.2089844 C110.277344,29.2089844 110.794922,28.5253906 110.794922,27.3486328 C110.794922,26.1669922 110.277344,25.4833984 109.369141,25.4833984 C108.456055,25.4833984 107.943359,26.1669922 107.943359,27.3486328 C107.943359,28.5302734 108.456055,29.2089844 109.369141,29.2089844 Z M113.133789,30 L113.133789,24.6972656 L114.144531,24.6972656 L114.144531,25.5371094 L114.222656,25.5371094 C114.481445,24.9511719 115.008789,24.5947266 115.80957,24.5947266 C116.996094,24.5947266 117.650391,25.3027344 117.650391,26.5673828 L117.650391,30 L116.600586,30 L116.600586,26.8164062 C116.600586,25.9375 116.229492,25.5078125 115.453125,25.5078125 C114.676758,25.5078125 114.183594,26.0351562 114.183594,26.8896484 L114.183594,30 L113.133789,30 Z" id="Download-Latest-Vers-Copy" fill="#FFFFFF"></path>
                </g>
                <g id="download" transform="translate(12.000000, 8.000000)" fill="#FFFFFF">
                    <path d="M13.9833226,1.0627056 L13.9833226,8.50162137 L18.0682156,8.50162137 C18.8973045,8.50162137 19.3118489,9.45362547 18.7249658,10.0115442 L11.6404479,16.7508476 C11.2886134,17.0830508 10.7207022,17.0830508 10.3688677,16.7508476 L3.2750342,10.0115442 C2.68815106,9.45362547 3.1026955,8.50162137 3.93178438,8.50162137 L8.02133517,8.50162137 L8.02133517,1.0627056 C8.02059061,0.780643041 8.13812702,0.509929116 8.34793043,0.310480143 C8.55773384,0.111031169 8.84250193,-0.000704471567 9.13920782,3.34245568e-06 L12.86545,3.34245568e-06 C13.1621559,-0.000704471567 13.446924,0.111031169 13.6567274,0.310480143 C13.8665308,0.509929116 13.9840672,0.780643041 13.9833226,1.0627056 Z" id="Path" fill-opacity="0.724014946"></path>
                    <path d="M20.9687471,16.0000028 L14.6652333,16.0000028 L12.5597652,17.8375011 C12.1466282,18.1994109 11.5853621,18.402844 11,18.402844 C10.4146379,18.402844 9.8533718,18.1994109 9.44023483,17.8375011 L7.33476671,16.0000028 L1.03125294,16.0000028 C0.757538526,15.9994034 0.49483686,16.0940319 0.301290932,16.2629446 C0.107745005,16.4318573 -0.000683621482,16.6611241 3.24352978e-06,16.900002 L3.24352978e-06,21.099998 C-0.000683621482,21.3388759 0.107745005,21.5681427 0.301290932,21.7370554 C0.49483686,21.9059681 0.757538526,22.0005966 1.03125294,21.9999972 L20.9687471,21.9999972 C21.2424615,22.0005966 21.5051631,21.9059681 21.6987091,21.7370554 C21.892255,21.5681427 22.0006836,21.3388759 21.9999968,21.099998 L21.9999968,16.900002 C22.0006836,16.6611241 21.892255,16.4318573 21.6987091,16.2629446 C21.5051631,16.0940319 21.2424615,15.9994034 20.9687471,16.0000028 Z M15.8124986,19.5999994 C15.4328029,19.5999994 15.1249988,19.3313705 15.1249988,19 C15.1249988,18.6686295 15.4328029,18.4000006 15.8124986,18.4000006 C16.1921942,18.4000006 16.4999984,18.6686295 16.4999984,19 C16.4999984,19.3313705 16.1921942,19.5999994 15.8124986,19.5999994 Z M18.5624978,19.5999994 C18.1828021,19.5999994 17.874998,19.3313705 17.874998,19 C17.874998,18.6686295 18.1828021,18.4000006 18.5624978,18.4000006 C18.9421934,18.4000006 19.2499976,18.6686295 19.2499976,19 C19.2499976,19.3313705 18.9421934,19.5999994 18.5624978,19.5999994 Z" id="Shape" fill-rule="nonzero"></path>
                </g>
            </g>
        </g>
    </g>
</svg>