<?xml version="1.0" encoding="UTF-8"?>
<svg width="133px" height="38px" viewBox="0 0 133 38" version="1.1" xmlns="http://www.w3.org/2000/svg" xmlns:xlink="http://www.w3.org/1999/xlink">
    <!-- Generator: Sketch 52.6 (67491) - http://www.bohemiancoding.com/sketch -->
    <title>github-button</title>
    <desc>Created with Sketch.</desc>
    <g id="Symbols" stroke="none" stroke-width="1" fill="none" fill-rule="evenodd">
        <g id="GitHub-Button">
            <g id="Group-3">
                <g id="Group-2">
                    <rect id="Rectangle" fill="#0070F3" x="0" y="0" width="133" height="38" rx="4"></rect>
                    <path d="M43.0722656,7.95410156 L45.6162109,7.95410156 C47.7060547,7.95410156 48.9316406,9.24316406 48.9316406,11.4599609 C48.9316406,13.7011719 47.7158203,15 45.6162109,15 L43.0722656,15 L43.0722656,7.95410156 Z M44.1660156,8.89648438 L44.1660156,14.0576172 L45.4941406,14.0576172 C46.96875,14.0576172 47.8183594,13.1152344 47.8183594,11.4746094 C47.8183594,9.84863281 46.9541016,8.89648438 45.4941406,8.89648438 L44.1660156,8.89648438 Z M52.5351562,15.1025391 C50.9775391,15.1025391 50.0253906,14.0625 50.0253906,12.3486328 C50.0253906,10.6396484 50.9824219,9.59472656 52.5351562,9.59472656 C54.0830078,9.59472656 55.0400391,10.6347656 55.0400391,12.3486328 C55.0400391,14.0625 54.0878906,15.1025391 52.5351562,15.1025391 Z M52.5351562,14.2089844 C53.4433594,14.2089844 53.9609375,13.5253906 53.9609375,12.3486328 C53.9609375,11.1669922 53.4433594,10.4833984 52.5351562,10.4833984 C51.6220703,10.4833984 51.109375,11.1669922 51.109375,12.3486328 C51.109375,13.5302734 51.6220703,14.2089844 52.5351562,14.2089844 Z M63.2236328,9.69726562 L61.7636719,15 L60.6748047,15 L59.5761719,11.0449219 L59.4931641,11.0449219 L58.3994141,15 L57.3203125,15 L55.8554688,9.69726562 L56.9199219,9.69726562 L57.8720703,13.7890625 L57.9501953,13.7890625 L59.0439453,9.69726562 L60.0498047,9.69726562 L61.1435547,13.7890625 L61.2265625,13.7890625 L62.1738281,9.69726562 L63.2236328,9.69726562 Z M64.3076172,15 L64.3076172,9.69726562 L65.3183594,9.69726562 L65.3183594,10.5371094 L65.3964844,10.5371094 C65.6552734,9.95117188 66.1826172,9.59472656 66.9833984,9.59472656 C68.1699219,9.59472656 68.8242188,10.3027344 68.8242188,11.5673828 L68.8242188,15 L67.7744141,15 L67.7744141,11.8164062 C67.7744141,10.9375 67.4033203,10.5078125 66.6269531,10.5078125 C65.8505859,10.5078125 65.3574219,11.0351562 65.3574219,11.8896484 L65.3574219,15 L64.3076172,15 Z M70.3476562,15 L70.3476562,7.6171875 L71.3974609,7.6171875 L71.3974609,15 L70.3476562,15 Z M75.2158203,15.1025391 C73.6582031,15.1025391 72.7060547,14.0625 72.7060547,12.3486328 C72.7060547,10.6396484 73.6630859,9.59472656 75.2158203,9.59472656 C76.7636719,9.59472656 77.7207031,10.6347656 77.7207031,12.3486328 C77.7207031,14.0625 76.7685547,15.1025391 75.2158203,15.1025391 Z M75.2158203,14.2089844 C76.1240234,14.2089844 76.6416016,13.5253906 76.6416016,12.3486328 C76.6416016,11.1669922 76.1240234,10.4833984 75.2158203,10.4833984 C74.3027344,10.4833984 73.7900391,11.1669922 73.7900391,12.3486328 C73.7900391,13.5302734 74.3027344,14.2089844 75.2158203,14.2089844 Z M80.4501953,15.0878906 C79.4248047,15.0878906 78.6777344,14.4726562 78.6777344,13.5058594 C78.6777344,12.5537109 79.390625,12.0019531 80.6552734,11.9238281 L82.0957031,11.8359375 L82.0957031,11.3720703 C82.0957031,10.7910156 81.7246094,10.4638672 81.0068359,10.4638672 C80.4208984,10.4638672 80.015625,10.6835938 79.8984375,11.0693359 L78.8828125,11.0693359 C78.9902344,10.1757812 79.8496094,9.59472656 81.0556641,9.59472656 C82.3886719,9.59472656 83.140625,10.2587891 83.140625,11.3720703 L83.140625,15 L82.1298828,15 L82.1298828,14.2480469 L82.046875,14.2480469 C81.7294922,14.7851562 81.1484375,15.0878906 80.4501953,15.0878906 Z M80.71875,14.2431641 C81.5097656,14.2431641 82.0957031,13.7255859 82.0957031,13.0419922 L82.0957031,12.5830078 L80.796875,12.6708984 C80.0644531,12.7197266 79.7324219,12.9785156 79.7324219,13.4619141 C79.7324219,13.9550781 80.1474609,14.2431641 80.71875,14.2431641 Z M86.578125,15.0878906 C85.2255859,15.0878906 84.3710938,14.0234375 84.3710938,12.34375 C84.3710938,10.6738281 85.2353516,9.60449219 86.578125,9.60449219 C87.3056641,9.60449219 87.9208984,9.95605469 88.2089844,10.5371094 L88.2871094,10.5371094 L88.2871094,7.6171875 L89.3369141,7.6171875 L89.3369141,15 L88.3310547,15 L88.3310547,14.1601562 L88.2480469,14.1601562 C87.9306641,14.7412109 87.3105469,15.0878906 86.578125,15.0878906 Z M86.8759766,10.5029297 C85.9921875,10.5029297 85.4550781,11.2011719 85.4550781,12.3486328 C85.4550781,13.5009766 85.9873047,14.1894531 86.8759766,14.1894531 C87.7597656,14.1894531 88.3066406,13.4912109 88.3066406,12.3486328 C88.3066406,11.2158203 87.7548828,10.5029297 86.8759766,10.5029297 Z M93.5214844,11.1816406 C93.5214844,10.2587891 94.3857422,9.59472656 95.5869141,9.59472656 C96.7832031,9.59472656 97.5644531,10.1513672 97.6669922,11.0693359 L96.6611328,11.0693359 C96.5634766,10.6738281 96.1826172,10.4150391 95.5869141,10.4150391 C95.0009766,10.4150391 94.5566406,10.703125 94.5566406,11.1328125 C94.5566406,11.4599609 94.8251953,11.6650391 95.4013672,11.8017578 L96.2851562,12.0068359 C97.2958984,12.2412109 97.7695312,12.6757812 97.7695312,13.4472656 C97.7695312,14.4335938 96.8369141,15.1025391 95.5673828,15.1025391 C94.3027344,15.1025391 93.4775391,14.53125 93.3847656,13.6083984 L94.4345703,13.6083984 C94.5664062,14.0234375 94.9570312,14.2822266 95.5917969,14.2822266 C96.2460938,14.2822266 96.7099609,13.9794922 96.7099609,13.5449219 C96.7099609,13.2128906 96.4609375,12.9980469 95.9287109,12.8710938 L95.0009766,12.6513672 C93.9902344,12.4169922 93.5214844,11.9677734 93.5214844,11.1816406 Z M101.280273,15.1025391 C99.7226562,15.1025391 98.7705078,14.0625 98.7705078,12.3486328 C98.7705078,10.6396484 99.7275391,9.59472656 101.280273,9.59472656 C102.828125,9.59472656 103.785156,10.6347656 103.785156,12.3486328 C103.785156,14.0625 102.833008,15.1025391 101.280273,15.1025391 Z M101.280273,14.2089844 C102.188477,14.2089844 102.706055,13.5253906 102.706055,12.3486328 C102.706055,11.1669922 102.188477,10.4833984 101.280273,10.4833984 C100.367188,10.4833984 99.8544922,11.1669922 99.8544922,12.3486328 C99.8544922,13.5302734 100.367188,14.2089844 101.280273,14.2089844 Z M109.527344,9.69726562 L109.527344,15 L108.516602,15 L108.516602,14.1601562 L108.433594,14.1601562 C108.174805,14.7607422 107.632812,15.1025391 106.827148,15.1025391 C105.650391,15.1025391 104.996094,14.3847656 104.996094,13.1396484 L104.996094,9.69726562 L106.045898,9.69726562 L106.045898,12.8808594 C106.045898,13.7597656 106.392578,14.1796875 107.164062,14.1796875 C108.013672,14.1796875 108.477539,13.6621094 108.477539,12.8076172 L108.477539,9.69726562 L109.527344,9.69726562 Z M111.050781,15 L111.050781,9.69726562 L112.061523,9.69726562 L112.061523,10.5029297 L112.139648,10.5029297 C112.291016,9.98046875 112.881836,9.60449219 113.575195,9.60449219 C113.731445,9.60449219 113.931641,9.61914062 114.043945,9.64355469 L114.043945,10.6298828 C113.956055,10.6054688 113.643555,10.5712891 113.458008,10.5712891 C112.662109,10.5712891 112.100586,11.0839844 112.100586,11.8310547 L112.100586,15 L111.050781,15 Z M119.556641,11.4013672 L118.536133,11.4013672 C118.414062,10.8837891 117.984375,10.4882812 117.28125,10.4882812 C116.402344,10.4882812 115.865234,11.1816406 115.865234,12.3291016 C115.865234,13.5009766 116.407227,14.2089844 117.28125,14.2089844 C117.945312,14.2089844 118.399414,13.8964844 118.536133,13.3203125 L119.556641,13.3203125 C119.419922,14.3652344 118.599609,15.1025391 117.286133,15.1025391 C115.738281,15.1025391 114.791016,14.0478516 114.791016,12.3291016 C114.791016,10.6445312 115.733398,9.59472656 117.28125,9.59472656 C118.614258,9.59472656 119.419922,10.3710938 119.556641,11.4013672 Z M124.239258,13.5791016 L125.25,13.5791016 C125.020508,14.5166016 124.161133,15.1025391 122.945312,15.1025391 C121.421875,15.1025391 120.489258,14.0527344 120.489258,12.3583984 C120.489258,10.6738281 121.441406,9.59472656 122.94043,9.59472656 C124.419922,9.59472656 125.313477,10.6054688 125.313477,12.265625 L125.313477,12.6269531 L121.558594,12.6269531 L121.558594,12.6757812 C121.592773,13.6376953 122.134766,14.2431641 122.974609,14.2431641 C123.609375,14.2431641 124.043945,14.0087891 124.239258,13.5791016 Z M122.935547,10.4492188 C122.15918,10.4492188 121.617188,11.015625 121.558594,11.8701172 L124.244141,11.8701172 C124.219727,11.0107422 123.711914,10.4492188 122.935547,10.4492188 Z M44.1396484,29 L44.1396484,22.7724609 L42.9160156,22.7724609 L42.9160156,21.5966797 L44.1396484,21.5966797 L44.1396484,20.796875 C44.1396484,19.3203125 44.8916016,18.5957031 46.4365234,18.5957031 C46.7714844,18.5957031 47.0585938,18.6230469 47.3115234,18.6640625 L47.3115234,19.7714844 C47.1748047,19.7509766 46.9765625,19.7373047 46.7441406,19.7373047 C45.9238281,19.7373047 45.5888672,20.1132812 45.5888672,20.8652344 L45.5888672,21.5966797 L47.25,21.5966797 L47.25,22.7724609 L45.609375,22.7724609 L45.609375,29 L44.1396484,29 Z M48.9111328,29 L48.9111328,21.5761719 L50.3261719,21.5761719 L50.3261719,22.7041016 L50.4355469,22.7041016 C50.6474609,21.9726562 51.4746094,21.4462891 52.4453125,21.4462891 C52.6640625,21.4462891 52.9443359,21.4667969 53.1015625,21.5009766 L53.1015625,22.8818359 C52.9785156,22.8476562 52.5410156,22.7998047 52.28125,22.7998047 C51.1669922,22.7998047 50.3808594,23.5175781 50.3808594,24.5634766 L50.3808594,29 L48.9111328,29 Z M57.6611328,29.1435547 C55.4804688,29.1435547 54.1474609,27.6875 54.1474609,25.2880859 C54.1474609,22.8955078 55.4873047,21.4326172 57.6611328,21.4326172 C59.828125,21.4326172 61.1679688,22.8886719 61.1679688,25.2880859 C61.1679688,27.6875 59.8349609,29.1435547 57.6611328,29.1435547 Z M57.6611328,27.8925781 C58.9326172,27.8925781 59.6572266,26.9355469 59.6572266,25.2880859 C59.6572266,23.6337891 58.9326172,22.6767578 57.6611328,22.6767578 C56.3828125,22.6767578 55.6650391,23.6337891 55.6650391,25.2880859 C55.6650391,26.9423828 56.3828125,27.8925781 57.6611328,27.8925781 Z M62.9316406,29 L62.9316406,21.5761719 L64.3466797,21.5761719 L64.3466797,22.7587891 L64.4560547,22.7587891 C64.7841797,21.9248047 65.5361328,21.4326172 66.5273438,21.4326172 C67.5458984,21.4326172 68.25,21.9589844 68.578125,22.7587891 L68.6943359,22.7587891 C69.0703125,21.9589844 69.9248047,21.4326172 70.9570312,21.4326172 C72.4609375,21.4326172 73.3359375,22.3349609 73.3359375,23.8798828 L73.3359375,29 L71.8662109,29 L71.8662109,24.2353516 C71.8662109,23.2099609 71.3876953,22.7109375 70.4238281,22.7109375 C69.4736328,22.7109375 68.8515625,23.4082031 68.8515625,24.3037109 L68.8515625,29 L67.4091797,29 L67.4091797,24.0849609 C67.4091797,23.2373047 66.8486328,22.7109375 65.9736328,22.7109375 C65.078125,22.7109375 64.4013672,23.4697266 64.4013672,24.4404297 L64.4013672,29 L62.9316406,29 Z M87.8144531,25.1171875 C87.8144531,27.6191406 86.1396484,29.2392578 83.5556641,29.2392578 C80.7597656,29.2392578 78.9960938,27.2431641 78.9960938,24.0644531 C78.9960938,20.9267578 80.7802734,18.8964844 83.5419922,18.8964844 C85.7841797,18.8964844 87.4111328,20.1542969 87.7460938,22.1435547 L86.2080078,22.1435547 C85.8251953,20.9199219 84.8886719,20.2568359 83.5419922,20.2568359 C81.7167969,20.2568359 80.5615234,21.7265625 80.5615234,24.0576172 C80.5615234,26.4228516 81.7236328,27.8789062 83.5761719,27.8789062 C85.1894531,27.8789062 86.296875,26.8603516 86.3105469,25.3496094 L86.3105469,25.1308594 L83.7675781,25.1308594 L83.7675781,23.8935547 L87.8144531,23.8935547 L87.8144531,25.1171875 Z M90.5078125,20.25 C89.9951172,20.25 89.578125,19.8330078 89.578125,19.3271484 C89.578125,18.8144531 89.9951172,18.3974609 90.5078125,18.3974609 C91.0205078,18.3974609 91.4375,18.8144531 91.4375,19.3271484 C91.4375,19.8330078 91.0205078,20.25 90.5078125,20.25 Z M89.7763672,29 L89.7763672,21.5761719 L91.2392578,21.5761719 L91.2392578,29 L89.7763672,29 Z M93.9189453,19.703125 L95.3886719,19.703125 L95.3886719,21.5966797 L97.0019531,21.5966797 L97.0019531,22.7724609 L95.3886719,22.7724609 L95.3886719,26.6894531 C95.3886719,27.4892578 95.7099609,27.8378906 96.4414062,27.8378906 C96.6669922,27.8378906 96.796875,27.8242188 97.0019531,27.8037109 L97.0019531,28.9726562 C96.7626953,29.0136719 96.4892578,29.0478516 96.2021484,29.0478516 C94.5683594,29.0478516 93.9189453,28.4736328 93.9189453,27.0449219 L93.9189453,22.7724609 L92.7363281,22.7724609 L92.7363281,21.5966797 L93.9189453,21.5966797 L93.9189453,19.703125 Z M107.023438,29 L105.499023,29 L105.499023,24.6318359 L100.433594,24.6318359 L100.433594,29 L98.9023438,29 L98.9023438,19.1357422 L100.433594,19.1357422 L100.433594,23.3056641 L105.499023,23.3056641 L105.499023,19.1357422 L107.023438,19.1357422 L107.023438,29 Z M115.602539,21.5761719 L115.602539,29 L114.1875,29 L114.1875,27.8242188 L114.071289,27.8242188 C113.708984,28.6650391 112.950195,29.1435547 111.822266,29.1435547 C110.174805,29.1435547 109.258789,28.1386719 109.258789,26.3955078 L109.258789,21.5761719 L110.728516,21.5761719 L110.728516,26.0332031 C110.728516,27.2636719 111.213867,27.8515625 112.293945,27.8515625 C113.483398,27.8515625 114.132812,27.1269531 114.132812,25.9306641 L114.132812,21.5761719 L115.602539,21.5761719 Z M121.679688,29.1230469 C120.640625,29.1230469 119.772461,28.6445312 119.328125,27.8242188 L119.21875,27.8242188 L119.21875,29 L117.803711,29 L117.803711,18.6640625 L119.273438,18.6640625 L119.273438,22.7519531 L119.389648,22.7519531 C119.786133,21.9453125 120.661133,21.4462891 121.679688,21.4462891 C123.566406,21.4462891 124.755859,22.9296875 124.755859,25.2880859 C124.755859,27.6259766 123.55957,29.1230469 121.679688,29.1230469 Z M121.255859,22.7041016 C120.025391,22.7041016 119.25293,23.6953125 119.246094,25.2880859 C119.25293,26.8808594 120.018555,27.8652344 121.255859,27.8652344 C122.5,27.8652344 123.245117,26.8945312 123.245117,25.2880859 C123.245117,23.6816406 122.5,22.7041016 121.255859,22.7041016 Z" id="Download-source-from" fill="#FFFFFF"></path>
                </g>
                <g id="Group-4" transform="translate(10.000000, 6.000000)" fill="#FFFFFE">
                    <path d="M13.0001076,0 C5.82128752,0 0,5.73783 0,12.8163618 C0,18.4790598 3.72492652,23.2832588 8.89026703,24.9779721 C9.53997102,25.0966126 9.77849721,24.6999415 9.77849721,24.3614233 C9.77849721,24.0558019 9.76644173,23.04619 9.76084455,21.9752416 C6.14420203,22.7505437 5.3810474,20.4630522 5.3810474,20.4630522 C4.7896833,18.9816373 3.93761954,18.5877252 3.93761954,18.5877252 C2.75812047,17.7922606 4.02652867,17.8086028 4.02652867,17.8086028 C5.3319644,17.8988036 6.01934175,19.1293543 6.01934175,19.1293543 C7.17882012,21.0887272 9.06055061,20.5222664 9.80239288,20.1947845 C9.91907266,19.3666354 10.2559801,18.8008113 10.6277624,18.4809699 C7.74026082,18.1568839 4.70486442,17.0579202 4.70486442,12.1469659 C4.70486442,10.7476867 5.2127013,9.60436548 6.04431381,8.70681479 C5.90933554,8.38378992 5.46435935,7.08044189 6.17025047,5.31505369 C6.17025047,5.31505369 7.26191679,4.97059288 9.74620575,6.62880134 C10.7831919,6.3448281 11.8953095,6.20241701 13.0001076,6.19753555 C14.1049058,6.20241701 15.2178845,6.3448281 16.2568081,6.62880134 C18.7380832,4.97059288 19.8282426,5.31505369 19.8282426,5.31505369 C20.5358559,7.08044189 20.0906645,8.38378992 19.9556862,8.70681479 C20.7892362,9.60436548 21.2936286,10.7476867 21.2936286,12.1469659 C21.2936286,17.0695932 18.2524198,18.1534881 15.3575988,18.4707826 C15.8238874,18.8685149 16.2393707,19.6484862 16.2393707,20.8442301 C16.2393707,22.5588936 16.2243014,23.9390714 16.2243014,24.3614233 C16.2243014,24.7024883 16.4583068,25.1021308 17.1172676,24.9762742 C22.2798096,23.2796508 26,18.4771497 26,12.8163618 C26,5.73783 20.1795736,0 13.0001076,0" id="Fill-52"></path>
                </g>
            </g>
        </g>
    </g>
</svg>