<?xml version="1.0" ?><!DOCTYPE svg  PUBLIC '-//W3C//DTD SVG 1.1//EN'  'http://www.w3.org/Graphics/SVG/1.1/DTD/svg11.dtd'><svg enable-background="new 0 0 64 64" height="64px" id="Icons" version="1.1" viewBox="0 0 64 64" width="64px" xml:space="preserve" xmlns="http://www.w3.org/2000/svg" xmlns:xlink="http://www.w3.org/1999/xlink"><g id="programming_1_"><path d="M58,50H38v1H26v-1H6c-0.553,0-1,0.447-1,1s0.438,1.097,0.977,1.217l6.07,1.35   C13.125,53.806,14.895,54,16,54h32c1.104,0,2.873-0.194,3.951-0.434l6.072-1.35C58.563,52.097,59,51.553,59,51S58.553,50,58,50z    M57.807,51.24l-6.072,1.35C50.734,52.813,49.023,53,48,53H16c-1.023,0-2.734-0.188-3.736-0.41l-6.07-1.35   C6.111,51.223,6,51.083,6,51h19v1h1h12h1v-1h19C58,51.083,57.887,51.223,57.807,51.24z" fill="#37474F"/><path d="M53,16H11c-0.553,0-1,0.447-1,1v13v17h44V30V17C54,16.447,53.553,16,53,16z M53,46H11V30V17h41.18H53v13V46   z" fill="#37474F"/><path d="M56,17c0-1.65-1.35-3-3-3H11c-1.65,0-3,1.35-3,3v32h48V17z M55,48H9V17c0-1.104,0.896-2,2-2h42   c1.104,0,2,0.896,2,2V48z" fill="#37474F"/><g><g><g><rect fill="#37474F" height="1" width="2" x="14" y="43"/></g><g><rect fill="#37474F" height="1" width="2" x="14" y="40"/></g><g><rect fill="#37474F" height="1" width="2" x="14" y="37"/></g><g><rect fill="#37474F" height="1" width="2" x="14" y="34"/></g><g><rect fill="#37474F" height="1" width="2" x="14" y="31"/></g><g><rect fill="#37474F" height="1" width="2" x="14" y="28"/></g><g><rect fill="#37474F" height="1" width="2" x="14" y="25"/></g><g><rect fill="#37474F" height="1" width="2" x="14" y="22"/></g><g><rect fill="#37474F" height="1" width="2" x="14" y="19"/></g></g><rect fill="#37474F" height="1" width="8" x="18" y="37"/><rect fill="#37474F" height="1" width="2" x="27" y="37"/><rect fill="#37474F" height="1" width="10" x="28" y="43"/><rect fill="#37474F" height="1" width="2" x="25" y="43"/><rect fill="#37474F" height="1" width="6" x="18" y="43"/><rect fill="#37474F" height="1" width="8" x="22" y="40"/><rect fill="#37474F" height="1" width="8" x="39" y="37"/><rect fill="#37474F" height="1" width="8" x="30" y="37"/><rect fill="#37474F" height="1" width="8" x="36" y="31"/><rect fill="#37474F" height="1" width="2" x="33" y="31"/><rect fill="#37474F" height="1" width="2" x="18" y="28"/><rect fill="#37474F" height="1" width="4" x="24" y="31"/><rect fill="#37474F" height="1" width="4" x="18" y="25"/><rect fill="#37474F" height="1" width="4" x="23" y="25"/><rect fill="#37474F" height="1" width="13" x="28" y="25"/><rect fill="#37474F" height="1" width="4" x="32" y="22"/><rect fill="#37474F" height="1" width="4" x="27" y="22"/><rect fill="#37474F" height="1" width="2" x="37" y="22"/><rect fill="#37474F" height="1" width="5" x="37" y="34"/><rect fill="#37474F" height="1" width="4" x="32" y="34"/><rect fill="#37474F" height="1" width="11" x="18" y="34"/><rect fill="#37474F" height="1" width="8" x="18" y="22"/><rect fill="#37474F" height="1" width="2" x="18" y="19"/></g></g></svg>