<?xml version="1.0" encoding="utf-8"?>
<!-- Generator: Adobe Illustrator 18.0.0, SVG Export Plug-In . SVG Version: 6.00 Build 0)  -->
<!DOCTYPE svg PUBLIC "-//W3C//DTD SVG 1.1//EN" "http://www.w3.org/Graphics/SVG/1.1/DTD/svg11.dtd">
<svg version="1.1" id="Capa_1" xmlns="http://www.w3.org/2000/svg" xmlns:xlink="http://www.w3.org/1999/xlink" x="0px" y="0px"
	 viewBox="0 0 100 100" enable-background="new 0 0 100 100" xml:space="preserve">
<g>
	<path fill="#89B3E5" d="M50,0C22.4,0,0,22.4,0,50c0,27.6,22.4,50,50,50c27.6,0,50-22.4,50-50C100,22.4,77.6,0,50,0z M50,2.3
		c26.3,0,47.7,21.4,47.7,47.7c0,26.3-21.4,47.7-47.7,47.7C23.7,97.7,2.3,76.3,2.3,50C2.3,23.7,23.7,2.3,50,2.3z M50,7.1
		c-15,0-28.2,7.7-35.8,19.3c1,0,2,0.1,2.8,0.1c4.5,0,11.4-0.6,11.4-0.6c2.3-0.1,2.6,3.3,0.3,3.5c0,0-2.3,0.3-4.9,0.4l15.6,46.4
		l9.4-28.2L42,29.9c-2.3-0.1-4.5-0.4-4.5-0.4c-2.3-0.1-2-3.7,0.3-3.5c0,0,7.1,0.6,11.3,0.6c4.5,0,11.4-0.6,11.4-0.6
		c2.3-0.1,2.6,3.3,0.3,3.5c0,0-2.3,0.3-4.9,0.4L71.4,76l4.3-14.3c1.9-5.9,3.3-10.2,3.3-13.8c0-5.3-1.9-9-3.5-11.8
		c-2.2-3.5-4.2-6.5-4.2-10.1c0-3.9,3-7.6,7.2-7.6c0.2,0,0.4,0,0.6,0C71.3,11.4,61.2,7.1,50,7.1z M87.6,29.4c0.2,1.4,0.3,2.9,0.3,4.4
		c0,4.4-0.8,9.2-3.3,15.3L71.6,87.1C84.3,79.6,92.9,65.8,92.9,50C92.9,42.5,91,35.5,87.6,29.4z M10.8,32.5C8.4,37.9,7.1,43.8,7.1,50
		c0,17,9.8,31.6,24.2,38.6L10.8,32.5z M50.8,53.8L37.9,91.2c3.8,1.1,7.9,1.7,12.1,1.7c5,0,9.8-0.8,14.2-2.4
		c-0.1-0.2-0.2-0.4-0.3-0.6L50.8,53.8z"/>
</g>
</svg>
